<svg width="356" height="168" viewBox="0 0 356 168" fill="none" xmlns="http://www.w3.org/2000/svg">
<rect x="50" y="16" width="255" height="110" rx="1" fill="black" fill-opacity="0.3"/>
<mask id="path-2-outside-1_19_219" maskUnits="userSpaceOnUse" x="92" y="29" width="168" height="34" fill="black">
<rect fill="white" x="92" y="29" width="168" height="34"/>
<path d="M110.15 62.54C105.47 62.54 101.45 60.95 98.09 57.77C94.73 54.56 93.05 50.615 93.05 45.935C93.05 41.225 94.52 37.28 97.46 34.1C100.4 30.89 104.165 29.285 108.755 29.285C112.355 29.285 116 29.885 119.69 31.085L119.105 32.885C115.505 31.805 112.055 31.265 108.755 31.265C104.825 31.265 101.615 32.675 99.125 35.495C96.635 38.315 95.39 41.765 95.39 45.845C95.39 49.925 96.83 53.405 99.71 56.285C102.62 59.135 106.1 60.56 110.15 60.56C113.69 60.56 116.75 60.02 119.33 58.94L120.005 60.47C118.865 61.13 117.365 61.64 115.505 62C113.675 62.36 111.89 62.54 110.15 62.54ZM148.72 58.985C146.74 61.295 143.725 62.45 139.675 62.45C135.625 62.45 132.61 61.295 130.63 58.985C128.65 56.675 127.66 53.48 127.66 49.4V32.795H129.73V49.4C129.73 56.87 133.045 60.605 139.675 60.605C146.305 60.605 149.62 56.87 149.62 49.4V32.795H151.69V49.4C151.69 53.48 150.7 56.675 148.72 58.985ZM162.208 62V32.795H164.278V62H162.208ZM180.979 34.055C179.359 34.055 178.039 34.445 177.019 35.225C175.999 36.005 175.489 37.1 175.489 38.51C175.489 40.13 176.164 41.585 177.514 42.875C178.474 43.805 179.704 44.795 181.204 45.845C182.734 46.865 183.784 47.6 184.354 48.05C184.924 48.5 185.614 49.115 186.424 49.895C187.894 51.365 188.629 53.06 188.629 54.98C188.629 57.47 187.789 59.36 186.109 60.65C184.459 61.91 182.134 62.54 179.134 62.54C176.164 62.54 173.674 61.76 171.664 60.2L172.744 58.625C174.784 60.005 176.944 60.695 179.224 60.695C181.504 60.695 183.274 60.215 184.534 59.255C185.824 58.295 186.469 56.945 186.469 55.205C186.469 53.705 185.824 52.325 184.534 51.065C183.634 50.165 182.419 49.19 180.889 48.14C179.389 47.09 178.339 46.34 177.739 45.89C177.139 45.41 176.434 44.78 175.624 44C174.094 42.47 173.329 40.7 173.329 38.69C173.329 36.68 174.034 35.105 175.444 33.965C176.884 32.825 178.864 32.255 181.384 32.255C183.904 32.255 186.169 32.75 188.179 33.74L187.414 35.405C185.554 34.505 183.409 34.055 180.979 34.055ZM196.924 62V32.795H198.994V62H196.924ZM209.8 62V32.615H210.79L229.96 54.665C230.65 55.445 231.28 56.225 231.85 57.005C232.45 57.755 232.765 58.145 232.795 58.175C232.735 57.455 232.705 56.045 232.705 53.945V32.795H234.775V62.18H233.785L214.255 39.77L211.78 36.755C211.84 37.355 211.87 38.765 211.87 40.985V62H209.8ZM245.572 62V32.795H259.207V34.595H247.642V45.215H258.082V46.97H247.642V60.11H259.657V62H245.572Z"/>
</mask>
<path d="M110.15 62.54C105.47 62.54 101.45 60.95 98.09 57.77C94.73 54.56 93.05 50.615 93.05 45.935C93.05 41.225 94.52 37.28 97.46 34.1C100.4 30.89 104.165 29.285 108.755 29.285C112.355 29.285 116 29.885 119.69 31.085L119.105 32.885C115.505 31.805 112.055 31.265 108.755 31.265C104.825 31.265 101.615 32.675 99.125 35.495C96.635 38.315 95.39 41.765 95.39 45.845C95.39 49.925 96.83 53.405 99.71 56.285C102.62 59.135 106.1 60.56 110.15 60.56C113.69 60.56 116.75 60.02 119.33 58.94L120.005 60.47C118.865 61.13 117.365 61.64 115.505 62C113.675 62.36 111.89 62.54 110.15 62.54ZM148.72 58.985C146.74 61.295 143.725 62.45 139.675 62.45C135.625 62.45 132.61 61.295 130.63 58.985C128.65 56.675 127.66 53.48 127.66 49.4V32.795H129.73V49.4C129.73 56.87 133.045 60.605 139.675 60.605C146.305 60.605 149.62 56.87 149.62 49.4V32.795H151.69V49.4C151.69 53.48 150.7 56.675 148.72 58.985ZM162.208 62V32.795H164.278V62H162.208ZM180.979 34.055C179.359 34.055 178.039 34.445 177.019 35.225C175.999 36.005 175.489 37.1 175.489 38.51C175.489 40.13 176.164 41.585 177.514 42.875C178.474 43.805 179.704 44.795 181.204 45.845C182.734 46.865 183.784 47.6 184.354 48.05C184.924 48.5 185.614 49.115 186.424 49.895C187.894 51.365 188.629 53.06 188.629 54.98C188.629 57.47 187.789 59.36 186.109 60.65C184.459 61.91 182.134 62.54 179.134 62.54C176.164 62.54 173.674 61.76 171.664 60.2L172.744 58.625C174.784 60.005 176.944 60.695 179.224 60.695C181.504 60.695 183.274 60.215 184.534 59.255C185.824 58.295 186.469 56.945 186.469 55.205C186.469 53.705 185.824 52.325 184.534 51.065C183.634 50.165 182.419 49.19 180.889 48.14C179.389 47.09 178.339 46.34 177.739 45.89C177.139 45.41 176.434 44.78 175.624 44C174.094 42.47 173.329 40.7 173.329 38.69C173.329 36.68 174.034 35.105 175.444 33.965C176.884 32.825 178.864 32.255 181.384 32.255C183.904 32.255 186.169 32.75 188.179 33.74L187.414 35.405C185.554 34.505 183.409 34.055 180.979 34.055ZM196.924 62V32.795H198.994V62H196.924ZM209.8 62V32.615H210.79L229.96 54.665C230.65 55.445 231.28 56.225 231.85 57.005C232.45 57.755 232.765 58.145 232.795 58.175C232.735 57.455 232.705 56.045 232.705 53.945V32.795H234.775V62.18H233.785L214.255 39.77L211.78 36.755C211.84 37.355 211.87 38.765 211.87 40.985V62H209.8ZM245.572 62V32.795H259.207V34.595H247.642V45.215H258.082V46.97H247.642V60.11H259.657V62H245.572Z" fill="white"/>
<path d="M98.09 57.77L97.9518 57.9146L97.9525 57.9153L98.09 57.77ZM97.46 34.1L97.6069 34.2358L97.6075 34.2351L97.46 34.1ZM119.69 31.085L119.88 31.1468L119.942 30.9566L119.752 30.8948L119.69 31.085ZM119.105 32.885L119.048 33.0766L119.235 33.1327L119.295 32.9468L119.105 32.885ZM99.125 35.495L98.9751 35.3626V35.3626L99.125 35.495ZM99.71 56.285L99.5686 56.4264L99.5701 56.4279L99.71 56.285ZM119.33 58.94L119.513 58.8593L119.434 58.6797L119.253 58.7555L119.33 58.94ZM120.005 60.47L120.105 60.6431L120.26 60.5533L120.188 60.3893L120.005 60.47ZM115.505 62L115.467 61.8036L115.466 61.8038L115.505 62ZM110.15 62.34C105.52 62.34 101.55 60.7691 98.2275 57.6247L97.9525 57.9153C101.35 61.1309 105.42 62.74 110.15 62.74V62.34ZM98.2282 57.6254C94.908 54.4534 93.25 50.5608 93.25 45.935H92.85C92.85 50.6692 94.552 54.6666 97.9518 57.9146L98.2282 57.6254ZM93.25 45.935C93.25 41.2705 94.7041 37.3754 97.6069 34.2358L97.3131 33.9642C94.3359 37.1846 92.85 41.1795 92.85 45.935H93.25ZM97.6075 34.2351C100.507 31.0689 104.218 29.485 108.755 29.485V29.085C104.112 29.085 100.293 30.7111 97.3125 33.9649L97.6075 34.2351ZM108.755 29.485C112.332 29.485 115.957 30.0812 119.628 31.2752L119.752 30.8948C116.043 29.6888 112.378 29.085 108.755 29.085V29.485ZM119.5 31.0232L118.915 32.8232L119.295 32.9468L119.88 31.1468L119.5 31.0232ZM119.162 32.6934C115.546 31.6086 112.077 31.065 108.755 31.065V31.465C112.033 31.465 115.464 32.0014 119.048 33.0766L119.162 32.6934ZM108.755 31.065C104.771 31.065 101.505 32.4975 98.9751 35.3626L99.2749 35.6274C101.725 32.8525 104.879 31.465 108.755 31.465V31.065ZM98.9751 35.3626C96.45 38.2224 95.19 41.7207 95.19 45.845H95.59C95.59 41.8093 96.82 38.4076 99.2749 35.6274L98.9751 35.3626ZM95.19 45.845C95.19 49.9779 96.651 53.5088 99.5686 56.4264L99.8514 56.1436C97.009 53.3012 95.59 49.8721 95.59 45.845H95.19ZM99.5701 56.4279C102.517 59.3143 106.047 60.76 110.15 60.76V60.36C106.153 60.36 102.723 58.9557 99.8499 56.1421L99.5701 56.4279ZM110.15 60.76C113.71 60.76 116.797 60.2171 119.407 59.1245L119.253 58.7555C116.703 59.8229 113.67 60.36 110.15 60.36V60.76ZM119.147 59.0207L119.822 60.5507L120.188 60.3893L119.513 58.8593L119.147 59.0207ZM119.905 60.2969C118.791 60.942 117.314 61.4462 115.467 61.8036L115.543 62.1964C117.416 61.8338 118.939 61.318 120.105 60.6431L119.905 60.2969ZM115.466 61.8038C113.648 62.1614 111.876 62.34 110.15 62.34V62.74C111.904 62.74 113.702 62.5586 115.544 62.1962L115.466 61.8038ZM148.72 58.985L148.872 59.1152L148.72 58.985ZM130.63 58.985L130.478 59.1152L130.63 58.985ZM127.66 32.795V32.595H127.46V32.795H127.66ZM129.73 32.795H129.93V32.595H129.73V32.795ZM149.62 32.795V32.595H149.42V32.795H149.62ZM151.69 32.795H151.89V32.595H151.69V32.795ZM148.568 58.8548C146.638 61.107 143.687 62.25 139.675 62.25V62.65C143.763 62.65 146.843 61.483 148.872 59.1152L148.568 58.8548ZM139.675 62.25C135.663 62.25 132.713 61.107 130.782 58.8548L130.478 59.1152C132.508 61.483 135.587 62.65 139.675 62.65V62.25ZM130.782 58.8548C128.842 56.5919 127.86 53.4487 127.86 49.4H127.46C127.46 53.5113 128.458 56.7581 130.478 59.1152L130.782 58.8548ZM127.86 49.4V32.795H127.46V49.4H127.86ZM127.66 32.995H129.73V32.595H127.66V32.995ZM129.53 32.795V49.4H129.93V32.795H129.53ZM129.53 49.4C129.53 53.1603 130.364 56.018 132.067 57.9365C133.774 59.8596 136.323 60.805 139.675 60.805V60.405C136.398 60.405 133.974 59.4829 132.366 57.671C130.754 55.8545 129.93 53.1097 129.93 49.4H129.53ZM139.675 60.805C143.028 60.805 145.577 59.8596 147.284 57.9365C148.986 56.018 149.82 53.1603 149.82 49.4H149.42C149.42 53.1097 148.597 55.8545 146.984 57.671C145.376 59.4829 142.953 60.405 139.675 60.405V60.805ZM149.82 49.4V32.795H149.42V49.4H149.82ZM149.62 32.995H151.69V32.595H149.62V32.995ZM151.49 32.795V49.4H151.89V32.795H151.49ZM151.49 49.4C151.49 53.4487 150.508 56.5919 148.568 58.8548L148.872 59.1152C150.892 56.7581 151.89 53.5113 151.89 49.4H151.49ZM162.208 62H162.008V62.2H162.208V62ZM162.208 32.795V32.595H162.008V32.795H162.208ZM164.278 32.795H164.478V32.595H164.278V32.795ZM164.278 62V62.2H164.478V62H164.278ZM162.408 62V32.795H162.008V62H162.408ZM162.208 32.995H164.278V32.595H162.208V32.995ZM164.078 32.795V62H164.478V32.795H164.078ZM164.278 61.8H162.208V62.2H164.278V61.8ZM177.019 35.225L176.897 35.0661L177.019 35.225ZM177.514 42.875L177.653 42.7313L177.652 42.7304L177.514 42.875ZM181.204 45.845L181.089 46.0089L181.093 46.0114L181.204 45.845ZM184.354 48.05L184.23 48.207L184.354 48.05ZM186.424 49.895L186.565 49.7536L186.562 49.7509L186.424 49.895ZM186.109 60.65L186.23 60.809L186.23 60.8086L186.109 60.65ZM171.664 60.2L171.499 60.0869L171.392 60.2424L171.541 60.358L171.664 60.2ZM172.744 58.625L172.856 58.4593L172.691 58.348L172.579 58.5119L172.744 58.625ZM184.534 59.255L184.414 59.0945L184.412 59.0959L184.534 59.255ZM184.534 51.065L184.392 51.2064L184.394 51.2081L184.534 51.065ZM180.889 48.14L180.774 48.3039L180.775 48.3049L180.889 48.14ZM177.739 45.89L177.614 46.0462L177.619 46.05L177.739 45.89ZM175.624 44L175.482 44.1414L175.485 44.1441L175.624 44ZM175.444 33.965L175.319 33.8082L175.318 33.8095L175.444 33.965ZM188.179 33.74L188.36 33.8235L188.442 33.6466L188.267 33.5606L188.179 33.74ZM187.414 35.405L187.326 35.585L187.51 35.6739L187.595 35.4885L187.414 35.405ZM180.979 33.855C179.326 33.855 177.96 34.2531 176.897 35.0661L177.14 35.3839C178.117 34.6369 179.391 34.255 180.979 34.255V33.855ZM176.897 35.0661C175.822 35.888 175.289 37.0447 175.289 38.51H175.689C175.689 37.1553 176.175 36.122 177.14 35.3839L176.897 35.0661ZM175.289 38.51C175.289 40.1931 175.993 41.6981 177.375 43.0196L177.652 42.7304C176.335 41.4718 175.689 40.0669 175.689 38.51H175.289ZM177.374 43.0186C178.344 43.9581 179.583 44.9548 181.089 46.0088L181.318 45.6812C179.824 44.6352 178.603 43.6518 177.653 42.7314L177.374 43.0186ZM181.093 46.0114C182.623 47.0316 183.667 47.7625 184.23 48.207L184.478 47.893C183.9 47.4375 182.844 46.6984 181.315 45.6786L181.093 46.0114ZM184.23 48.207C184.793 48.6514 185.477 49.2614 186.285 50.0391L186.562 49.7509C185.75 48.9686 185.055 48.3486 184.478 47.893L184.23 48.207ZM186.282 50.0364C187.718 51.4723 188.429 53.1177 188.429 54.98H188.829C188.829 53.0023 188.069 51.2577 186.565 49.7536L186.282 50.0364ZM188.429 54.98C188.429 57.4201 187.608 59.2461 185.987 60.4914L186.23 60.8086C187.969 59.4739 188.829 57.5199 188.829 54.98H188.429ZM185.987 60.491C184.385 61.7149 182.109 62.34 179.134 62.34V62.74C182.159 62.74 184.533 62.1051 186.23 60.809L185.987 60.491ZM179.134 62.34C176.2 62.34 173.755 61.5704 171.786 60.042L171.541 60.358C173.592 61.9496 176.127 62.74 179.134 62.74V62.34ZM171.829 60.3131L172.909 58.7381L172.579 58.5119L171.499 60.0869L171.829 60.3131ZM172.632 58.7907C174.702 60.1912 176.9 60.895 179.224 60.895V60.495C176.987 60.495 174.865 59.8188 172.856 58.4593L172.632 58.7907ZM179.224 60.895C181.529 60.895 183.348 60.41 184.655 59.4141L184.412 59.0959C183.2 60.02 181.478 60.495 179.224 60.495V60.895ZM184.653 59.4154C185.998 58.4142 186.669 57.0022 186.669 55.205H186.269C186.269 56.8878 185.649 58.1758 184.414 59.0946L184.653 59.4154ZM186.669 55.205C186.669 53.6405 185.994 52.2114 184.673 50.9219L184.394 51.2081C185.654 52.4386 186.269 53.7695 186.269 55.205H186.669ZM184.675 50.9236C183.763 50.012 182.538 49.0292 181.002 47.9751L180.775 48.3049C182.299 49.3508 183.504 50.318 184.392 51.2064L184.675 50.9236ZM181.003 47.9762C179.503 46.9261 178.456 46.1778 177.859 45.73L177.619 46.05C178.221 46.5022 179.274 47.2539 180.774 48.3038L181.003 47.9762ZM177.864 45.7338C177.27 45.259 176.57 44.6334 175.762 43.8559L175.485 44.1441C176.297 44.9266 177.007 45.561 177.614 46.0462L177.864 45.7338ZM175.765 43.8586C174.269 42.3629 173.529 40.6426 173.529 38.69H173.129C173.129 40.7574 173.918 42.5771 175.482 44.1414L175.765 43.8586ZM173.529 38.69C173.529 36.7329 174.212 35.2181 175.569 34.1205L175.318 33.8095C173.855 34.9919 173.129 36.6271 173.129 38.69H173.529ZM175.568 34.1218C176.961 33.0186 178.892 32.455 181.384 32.455V32.055C178.835 32.055 176.806 32.6314 175.319 33.8082L175.568 34.1218ZM181.384 32.455C183.877 32.455 186.111 32.9446 188.09 33.9194L188.267 33.5606C186.226 32.5554 183.93 32.055 181.384 32.055V32.455ZM187.997 33.6565L187.232 35.3215L187.595 35.4885L188.36 33.8235L187.997 33.6565ZM187.501 35.225C185.609 34.3097 183.433 33.855 180.979 33.855V34.255C183.384 34.255 185.498 34.7003 187.326 35.585L187.501 35.225ZM196.924 62H196.724V62.2H196.924V62ZM196.924 32.795V32.595H196.724V32.795H196.924ZM198.994 32.795H199.194V32.595H198.994V32.795ZM198.994 62V62.2H199.194V62H198.994ZM197.124 62V32.795H196.724V62H197.124ZM196.924 32.995H198.994V32.595H196.924V32.995ZM198.794 32.795V62H199.194V32.795H198.794ZM198.994 61.8H196.924V62.2H198.994V61.8ZM209.8 62H209.6V62.2H209.8V62ZM209.8 32.615V32.415H209.6V32.615H209.8ZM210.79 32.615L210.941 32.4838L210.882 32.415H210.79V32.615ZM229.96 54.665L229.809 54.7962L229.811 54.7975L229.96 54.665ZM231.85 57.005L231.689 57.1231L231.694 57.1299L231.85 57.005ZM232.795 58.175L232.654 58.3164L233.04 58.7025L232.995 58.1584L232.795 58.175ZM232.705 32.795V32.595H232.505V32.795H232.705ZM234.775 32.795H234.975V32.595H234.775V32.795ZM234.775 62.18V62.38H234.975V62.18H234.775ZM233.785 62.18L233.635 62.3114L233.694 62.38H233.785V62.18ZM214.255 39.77L214.101 39.897L214.105 39.9014L214.255 39.77ZM211.78 36.755L211.935 36.6281L211.516 36.1172L211.581 36.7749L211.78 36.755ZM211.87 62V62.2H212.07V62H211.87ZM210 62V32.615H209.6V62H210ZM209.8 32.815H210.79V32.415H209.8V32.815ZM210.639 32.7462L229.809 54.7962L230.111 54.5338L210.941 32.4838L210.639 32.7462ZM229.811 54.7975C230.497 55.5732 231.123 56.3484 231.689 57.123L232.012 56.887C231.438 56.1016 230.804 55.3168 230.11 54.5325L229.811 54.7975ZM231.694 57.1299C231.994 57.505 232.223 57.7903 232.381 57.9857C232.46 58.0833 232.521 58.1588 232.565 58.2119C232.604 58.2594 232.638 58.3 232.654 58.3164L232.937 58.0336C232.938 58.035 232.921 58.0156 232.874 57.9581C232.831 57.9062 232.771 57.8317 232.692 57.7343C232.535 57.5397 232.307 57.255 232.007 56.8801L231.694 57.1299ZM232.995 58.1584C232.936 57.448 232.905 56.0462 232.905 53.945H232.505C232.505 56.0438 232.535 57.462 232.596 58.1916L232.995 58.1584ZM232.905 53.945V32.795H232.505V53.945H232.905ZM232.705 32.995H234.775V32.595H232.705V32.995ZM234.575 32.795V62.18H234.975V32.795H234.575ZM234.775 61.98H233.785V62.38H234.775V61.98ZM233.936 62.0486L214.406 39.6386L214.105 39.9014L233.635 62.3114L233.936 62.0486ZM214.41 39.6431L211.935 36.6281L211.626 36.8819L214.101 39.8969L214.41 39.6431ZM211.581 36.7749C211.64 37.3629 211.67 38.7618 211.67 40.985H212.07C212.07 38.7682 212.041 37.3471 211.979 36.7351L211.581 36.7749ZM211.67 40.985V62H212.07V40.985H211.67ZM211.87 61.8H209.8V62.2H211.87V61.8ZM245.572 62H245.372V62.2H245.572V62ZM245.572 32.795V32.595H245.372V32.795H245.572ZM259.207 32.795H259.407V32.595H259.207V32.795ZM259.207 34.595V34.795H259.407V34.595H259.207ZM247.642 34.595V34.395H247.442V34.595H247.642ZM247.642 45.215H247.442V45.415H247.642V45.215ZM258.082 45.215H258.282V45.015H258.082V45.215ZM258.082 46.97V47.17H258.282V46.97H258.082ZM247.642 46.97V46.77H247.442V46.97H247.642ZM247.642 60.11H247.442V60.31H247.642V60.11ZM259.657 60.11H259.857V59.91H259.657V60.11ZM259.657 62V62.2H259.857V62H259.657ZM245.772 62V32.795H245.372V62H245.772ZM245.572 32.995H259.207V32.595H245.572V32.995ZM259.007 32.795V34.595H259.407V32.795H259.007ZM259.207 34.395H247.642V34.795H259.207V34.395ZM247.442 34.595V45.215H247.842V34.595H247.442ZM247.642 45.415H258.082V45.015H247.642V45.415ZM257.882 45.215V46.97H258.282V45.215H257.882ZM258.082 46.77H247.642V47.17H258.082V46.77ZM247.442 46.97V60.11H247.842V46.97H247.442ZM247.642 60.31H259.657V59.91H247.642V60.31ZM259.457 60.11V62H259.857V60.11H259.457ZM259.657 61.8H245.572V62.2H259.657V61.8Z" fill="black" mask="url(#path-2-outside-1_19_219)"/>
<mask id="path-4-outside-2_19_219" maskUnits="userSpaceOnUse" x="64" y="69" width="226" height="44" fill="black">
<rect fill="white" x="64" y="69" width="226" height="44"/>
<path d="M65.809 74.105H68.936L79.112 90.747L89.712 74.105H92.521L80.331 92.708L92.574 112H89.5L78.582 94.404L67.187 112H64.378L77.31 92.39L65.809 74.105ZM126.145 110.304C123.495 111.788 119.802 112.53 115.068 112.53C110.368 112.53 106.217 110.834 102.613 107.442C99.0439 104.05 97.2595 99.8453 97.2595 94.828C97.2595 89.7753 98.8142 85.553 101.924 82.161C105.068 78.769 109.114 77.073 114.061 77.073C118.053 77.073 121.958 77.6913 125.774 78.928L125.138 80.942C121.463 79.8113 117.665 79.246 113.743 79.246C109.821 79.246 106.517 80.7477 103.832 83.751C101.182 86.719 99.8565 90.376 99.8565 94.722C99.8565 99.0327 101.394 102.707 104.468 105.746C107.577 108.785 111.163 110.304 115.227 110.304C119.29 110.304 122.664 109.739 125.35 108.608L126.145 110.304ZM134.834 112V77.603H137.272V109.774H153.066V112H134.834ZM183.18 108.449C180.848 111.17 177.297 112.53 172.527 112.53C167.757 112.53 164.206 111.17 161.874 108.449C159.542 105.728 158.376 101.965 158.376 97.16V77.603H160.814V97.16C160.814 105.958 164.718 110.357 172.527 110.357C180.336 110.357 184.24 105.958 184.24 97.16V77.603H186.678V97.16C186.678 101.965 185.512 105.728 183.18 108.449ZM206.008 79.087C204.1 79.087 202.545 79.5463 201.344 80.465C200.143 81.3837 199.542 82.6733 199.542 84.334C199.542 86.242 200.337 87.9557 201.927 89.475C203.058 90.5703 204.506 91.7363 206.273 92.973C208.075 94.1743 209.312 95.04 209.983 95.57C210.654 96.1 211.467 96.8243 212.421 97.743C214.152 99.4743 215.018 101.471 215.018 103.732C215.018 106.665 214.029 108.891 212.05 110.41C210.107 111.894 207.368 112.636 203.835 112.636C200.337 112.636 197.404 111.717 195.037 109.88L196.309 108.025C198.712 109.65 201.256 110.463 203.941 110.463C206.626 110.463 208.711 109.898 210.195 108.767C211.714 107.636 212.474 106.046 212.474 103.997C212.474 102.23 211.714 100.605 210.195 99.121C209.135 98.061 207.704 96.9127 205.902 95.676C204.135 94.4393 202.899 93.556 202.192 93.026C201.485 92.4607 200.655 91.7187 199.701 90.8C197.899 88.998 196.998 86.9133 196.998 84.546C196.998 82.1787 197.828 80.3237 199.489 78.981C201.185 77.6383 203.517 76.967 206.485 76.967C209.453 76.967 212.121 77.55 214.488 78.716L213.587 80.677C211.396 79.617 208.87 79.087 206.008 79.087ZM224.789 112V77.603H227.227V112H224.789ZM251.19 104.792L262.691 77.603H265.235L250.448 112.212H249.017L234.23 77.603H236.88L249.865 108.184C250.041 107.654 250.483 106.523 251.19 104.792ZM272.251 112V77.603H288.31V79.723H274.689V92.231H286.985V94.298H274.689V109.774H288.84V112H272.251ZM283.222 74.847L275.007 70.607L278.028 69.388L285.077 74.317L283.222 74.847Z"/>
</mask>
<path d="M65.809 74.105H68.936L79.112 90.747L89.712 74.105H92.521L80.331 92.708L92.574 112H89.5L78.582 94.404L67.187 112H64.378L77.31 92.39L65.809 74.105ZM126.145 110.304C123.495 111.788 119.802 112.53 115.068 112.53C110.368 112.53 106.217 110.834 102.613 107.442C99.0439 104.05 97.2595 99.8453 97.2595 94.828C97.2595 89.7753 98.8142 85.553 101.924 82.161C105.068 78.769 109.114 77.073 114.061 77.073C118.053 77.073 121.958 77.6913 125.774 78.928L125.138 80.942C121.463 79.8113 117.665 79.246 113.743 79.246C109.821 79.246 106.517 80.7477 103.832 83.751C101.182 86.719 99.8565 90.376 99.8565 94.722C99.8565 99.0327 101.394 102.707 104.468 105.746C107.577 108.785 111.163 110.304 115.227 110.304C119.29 110.304 122.664 109.739 125.35 108.608L126.145 110.304ZM134.834 112V77.603H137.272V109.774H153.066V112H134.834ZM183.18 108.449C180.848 111.17 177.297 112.53 172.527 112.53C167.757 112.53 164.206 111.17 161.874 108.449C159.542 105.728 158.376 101.965 158.376 97.16V77.603H160.814V97.16C160.814 105.958 164.718 110.357 172.527 110.357C180.336 110.357 184.24 105.958 184.24 97.16V77.603H186.678V97.16C186.678 101.965 185.512 105.728 183.18 108.449ZM206.008 79.087C204.1 79.087 202.545 79.5463 201.344 80.465C200.143 81.3837 199.542 82.6733 199.542 84.334C199.542 86.242 200.337 87.9557 201.927 89.475C203.058 90.5703 204.506 91.7363 206.273 92.973C208.075 94.1743 209.312 95.04 209.983 95.57C210.654 96.1 211.467 96.8243 212.421 97.743C214.152 99.4743 215.018 101.471 215.018 103.732C215.018 106.665 214.029 108.891 212.05 110.41C210.107 111.894 207.368 112.636 203.835 112.636C200.337 112.636 197.404 111.717 195.037 109.88L196.309 108.025C198.712 109.65 201.256 110.463 203.941 110.463C206.626 110.463 208.711 109.898 210.195 108.767C211.714 107.636 212.474 106.046 212.474 103.997C212.474 102.23 211.714 100.605 210.195 99.121C209.135 98.061 207.704 96.9127 205.902 95.676C204.135 94.4393 202.899 93.556 202.192 93.026C201.485 92.4607 200.655 91.7187 199.701 90.8C197.899 88.998 196.998 86.9133 196.998 84.546C196.998 82.1787 197.828 80.3237 199.489 78.981C201.185 77.6383 203.517 76.967 206.485 76.967C209.453 76.967 212.121 77.55 214.488 78.716L213.587 80.677C211.396 79.617 208.87 79.087 206.008 79.087ZM224.789 112V77.603H227.227V112H224.789ZM251.19 104.792L262.691 77.603H265.235L250.448 112.212H249.017L234.23 77.603H236.88L249.865 108.184C250.041 107.654 250.483 106.523 251.19 104.792ZM272.251 112V77.603H288.31V79.723H274.689V92.231H286.985V94.298H274.689V109.774H288.84V112H272.251ZM283.222 74.847L275.007 70.607L278.028 69.388L285.077 74.317L283.222 74.847Z" fill="white"/>
<path d="M65.809 74.105V73.905H65.4469L65.6397 74.2115L65.809 74.105ZM68.936 74.105L69.1066 74.0007L69.0481 73.905H68.936V74.105ZM79.112 90.747L78.9414 90.8513L79.1085 91.1247L79.2807 90.8544L79.112 90.747ZM89.712 74.105V73.905H89.6023L89.5433 73.9976L89.712 74.105ZM92.521 74.105L92.6883 74.2146L92.8912 73.905H92.521V74.105ZM80.331 92.708L80.1637 92.5984L80.093 92.7063L80.1621 92.8152L80.331 92.708ZM92.574 112V112.2H92.9378L92.7429 111.893L92.574 112ZM89.5 112L89.3301 112.105L89.3887 112.2H89.5V112ZM78.582 94.404L78.7519 94.2986L78.5856 94.0305L78.4141 94.2953L78.582 94.404ZM67.187 112V112.2H67.2958L67.3549 112.109L67.187 112ZM64.378 112L64.211 111.89L64.0065 112.2H64.378V112ZM77.31 92.39L77.477 92.5001L77.5479 92.3926L77.4793 92.2835L77.31 92.39ZM65.809 74.305H68.936V73.905H65.809V74.305ZM68.7654 74.2093L78.9414 90.8513L79.2826 90.6427L69.1066 74.0007L68.7654 74.2093ZM79.2807 90.8544L89.8807 74.2124L89.5433 73.9976L78.9433 90.6396L79.2807 90.8544ZM89.712 74.305H92.521V73.905H89.712V74.305ZM92.3537 73.9954L80.1637 92.5984L80.4983 92.8176L92.6883 74.2146L92.3537 73.9954ZM80.1621 92.8152L92.4051 112.107L92.7429 111.893L80.4999 92.6008L80.1621 92.8152ZM92.574 111.8H89.5V112.2H92.574V111.8ZM89.6699 111.895L78.7519 94.2986L78.4121 94.5094L89.3301 112.105L89.6699 111.895ZM78.4141 94.2953L67.0191 111.891L67.3549 112.109L78.7499 94.5127L78.4141 94.2953ZM67.187 111.8H64.378V112.2H67.187V111.8ZM64.545 112.11L77.477 92.5001L77.143 92.2799L64.211 111.89L64.545 112.11ZM77.4793 92.2835L65.9783 73.9985L65.6397 74.2115L77.1407 92.4965L77.4793 92.2835ZM126.145 110.304L126.242 110.479L126.405 110.388L126.326 110.219L126.145 110.304ZM102.613 107.442L102.475 107.587L102.475 107.588L102.613 107.442ZM101.924 82.161L101.777 82.025L101.776 82.0259L101.924 82.161ZM125.774 78.928L125.964 78.9882L126.024 78.7989L125.835 78.7377L125.774 78.928ZM125.138 80.942L125.079 81.1332L125.268 81.1915L125.328 81.0022L125.138 80.942ZM103.832 83.751L103.682 83.6177L103.682 83.6178L103.832 83.751ZM104.468 105.746L104.327 105.888L104.328 105.889L104.468 105.746ZM125.35 108.608L125.531 108.523L125.449 108.349L125.272 108.424L125.35 108.608ZM126.047 110.129C123.439 111.59 119.785 112.33 115.068 112.33V112.73C119.819 112.73 123.55 111.986 126.242 110.479L126.047 110.129ZM115.068 112.33C110.422 112.33 106.319 110.655 102.75 107.296L102.475 107.588C106.114 111.013 110.314 112.73 115.068 112.73V112.33ZM102.75 107.297C99.2222 103.944 97.4595 99.7917 97.4595 94.828H97.0595C97.0595 99.899 98.8655 104.156 102.475 107.587L102.75 107.297ZM97.4595 94.828C97.4595 89.82 98.9989 85.6475 102.071 82.2961L101.776 82.0259C98.6295 85.4585 97.0595 89.7306 97.0595 94.828H97.4595ZM102.07 82.297C105.174 78.9489 109.165 77.273 114.061 77.273V76.873C109.063 76.873 104.962 78.5891 101.777 82.025L102.07 82.297ZM114.061 77.273C118.032 77.273 121.916 77.888 125.712 79.1183L125.835 78.7377C121.999 77.4946 118.074 76.873 114.061 76.873V77.273ZM125.583 78.8678L124.947 80.8818L125.328 81.0022L125.964 78.9882L125.583 78.8678ZM125.196 80.7508C121.502 79.6142 117.684 79.046 113.743 79.046V79.446C117.645 79.446 121.423 80.0085 125.079 81.1332L125.196 80.7508ZM113.743 79.046C109.762 79.046 106.405 80.5732 103.682 83.6177L103.981 83.8843C106.629 80.9221 109.879 79.446 113.743 79.446V79.046ZM103.682 83.6178C100.996 86.6259 99.6565 90.3318 99.6565 94.722H100.057C100.057 90.4202 101.367 86.812 103.981 83.8842L103.682 83.6178ZM99.6565 94.722C99.6565 99.0863 101.215 102.812 104.327 105.888L104.608 105.604C101.572 102.603 100.057 98.9791 100.057 94.722H99.6565ZM104.328 105.889C107.472 108.961 111.107 110.504 115.227 110.504V110.104C111.219 110.104 107.682 108.608 104.607 105.603L104.328 105.889ZM115.227 110.504C119.307 110.504 122.71 109.937 125.427 108.792L125.272 108.424C122.619 109.541 119.273 110.104 115.227 110.104V110.504ZM125.168 108.693L125.963 110.389L126.326 110.219L125.531 108.523L125.168 108.693ZM134.834 112H134.634V112.2H134.834V112ZM134.834 77.603V77.403H134.634V77.603H134.834ZM137.272 77.603H137.472V77.403H137.272V77.603ZM137.272 109.774H137.072V109.974H137.272V109.774ZM153.066 109.774H153.266V109.574H153.066V109.774ZM153.066 112V112.2H153.266V112H153.066ZM135.034 112V77.603H134.634V112H135.034ZM134.834 77.803H137.272V77.403H134.834V77.803ZM137.072 77.603V109.774H137.472V77.603H137.072ZM137.272 109.974H153.066V109.574H137.272V109.974ZM152.866 109.774V112H153.266V109.774H152.866ZM153.066 111.8H134.834V112.2H153.066V111.8ZM183.18 108.449L183.332 108.579L183.18 108.449ZM161.874 108.449L161.722 108.579L161.874 108.449ZM158.376 77.603V77.403H158.176V77.603H158.376ZM160.814 77.603H161.014V77.403H160.814V77.603ZM184.24 77.603V77.403H184.04V77.603H184.24ZM186.678 77.603H186.878V77.403H186.678V77.603ZM183.028 108.319C180.746 110.982 177.259 112.33 172.527 112.33V112.73C177.335 112.73 180.95 111.358 183.332 108.579L183.028 108.319ZM172.527 112.33C167.795 112.33 164.308 110.982 162.026 108.319L161.722 108.579C164.104 111.358 167.719 112.73 172.527 112.73V112.33ZM162.026 108.319C159.734 105.645 158.576 101.934 158.576 97.16H158.176C158.176 101.997 159.35 105.811 161.722 108.579L162.026 108.319ZM158.576 97.16V77.603H158.176V97.16H158.576ZM158.376 77.803H160.814V77.403H158.376V77.803ZM160.614 77.603V97.16H161.014V77.603H160.614ZM160.614 97.16C160.614 101.584 161.595 104.94 163.593 107.191C165.594 109.446 168.585 110.557 172.527 110.557V110.157C168.66 110.157 165.795 109.069 163.892 106.925C161.985 104.777 161.014 101.534 161.014 97.16H160.614ZM172.527 110.557C176.469 110.557 179.46 109.446 181.461 107.191C183.459 104.94 184.44 101.584 184.44 97.16H184.04C184.04 101.534 183.069 104.777 181.162 106.925C179.259 109.069 176.394 110.157 172.527 110.157V110.557ZM184.44 97.16V77.603H184.04V97.16H184.44ZM184.24 77.803H186.678V77.403H184.24V77.803ZM186.478 77.603V97.16H186.878V77.603H186.478ZM186.478 97.16C186.478 101.934 185.32 105.645 183.028 108.319L183.332 108.579C185.704 105.811 186.878 101.997 186.878 97.16H186.478ZM201.344 80.465L201.223 80.3061L201.344 80.465ZM201.927 89.475L202.066 89.3313L202.065 89.3304L201.927 89.475ZM206.273 92.973L206.158 93.1369L206.162 93.1394L206.273 92.973ZM209.983 95.57L209.859 95.727L209.983 95.57ZM212.421 97.743L212.563 97.6016L212.56 97.5989L212.421 97.743ZM212.05 110.41L212.171 110.569L212.172 110.569L212.05 110.41ZM195.037 109.88L194.872 109.767L194.766 109.922L194.914 110.038L195.037 109.88ZM196.309 108.025L196.421 107.859L196.257 107.748L196.144 107.912L196.309 108.025ZM210.195 108.767L210.076 108.607L210.074 108.608L210.195 108.767ZM210.195 99.121L210.054 99.2624L210.055 99.2641L210.195 99.121ZM205.902 95.676L205.787 95.8399L205.789 95.8409L205.902 95.676ZM202.192 93.026L202.067 93.1822L202.072 93.186L202.192 93.026ZM199.701 90.8L199.56 90.9414L199.562 90.9441L199.701 90.8ZM199.489 78.981L199.365 78.8242L199.363 78.8255L199.489 78.981ZM214.488 78.716L214.67 78.7995L214.751 78.6226L214.576 78.5366L214.488 78.716ZM213.587 80.677L213.5 80.857L213.684 80.9459L213.769 80.7605L213.587 80.677ZM206.008 78.887C204.068 78.887 202.467 79.3545 201.223 80.3061L201.466 80.6239C202.624 79.7382 204.132 79.287 206.008 79.287V78.887ZM201.223 80.3061C199.966 81.2667 199.342 82.6181 199.342 84.334H199.742C199.742 82.7286 200.319 81.5006 201.466 80.6239L201.223 80.3061ZM199.342 84.334C199.342 86.3051 200.166 88.0688 201.789 89.6196L202.065 89.3304C200.508 87.8425 199.742 86.1789 199.742 84.334H199.342ZM201.788 89.6186C202.928 90.7235 204.386 91.8962 206.158 93.1368L206.388 92.8092C204.627 91.5765 203.187 90.4172 202.066 89.3314L201.788 89.6186ZM206.162 93.1394C207.964 94.3409 209.195 95.2025 209.859 95.727L210.107 95.413C209.429 94.8774 208.186 94.0078 206.384 92.8066L206.162 93.1394ZM209.859 95.727C210.523 96.2514 211.331 96.9708 212.282 97.8871L212.56 97.5989C211.603 96.6779 210.785 95.9486 210.107 95.413L209.859 95.727ZM212.28 97.8844C213.977 99.5817 214.818 101.528 214.818 103.732H215.218C215.218 101.413 214.328 99.367 212.562 97.6016L212.28 97.8844ZM214.818 103.732C214.818 106.615 213.849 108.777 211.928 110.251L212.172 110.569C214.209 109.005 215.218 106.715 215.218 103.732H214.818ZM211.929 110.251C210.033 111.699 207.343 112.436 203.835 112.436V112.836C207.393 112.836 210.181 112.089 212.171 110.569L211.929 110.251ZM203.835 112.436C200.374 112.436 197.486 111.528 195.16 109.722L194.914 110.038C197.323 111.907 200.3 112.836 203.835 112.836V112.436ZM195.202 109.993L196.474 108.138L196.144 107.912L194.872 109.767L195.202 109.993ZM196.197 108.191C198.63 109.836 201.213 110.663 203.941 110.663V110.263C201.299 110.263 198.794 109.464 196.421 107.859L196.197 108.191ZM203.941 110.663C206.652 110.663 208.785 110.093 210.316 108.926L210.074 108.608C208.637 109.703 206.601 110.263 203.941 110.263V110.663ZM210.314 108.927C211.889 107.756 212.674 106.104 212.674 103.997H212.274C212.274 105.989 211.54 107.517 210.076 108.607L210.314 108.927ZM212.674 103.997C212.674 102.166 211.884 100.491 210.335 98.9779L210.055 99.2641C211.544 100.719 212.274 102.295 212.274 103.997H212.674ZM210.337 98.9796C209.265 97.908 207.823 96.7519 206.015 95.5111L205.789 95.8409C207.585 97.0735 209.005 98.2141 210.054 99.2624L210.337 98.9796ZM206.017 95.5122C204.25 94.2755 203.016 93.3938 202.312 92.866L202.072 93.186C202.782 93.7182 204.021 94.6032 205.787 95.8398L206.017 95.5122ZM202.317 92.8698C201.617 92.3096 200.791 91.5721 199.84 90.6559L199.562 90.9441C200.519 91.8652 201.354 92.6117 202.067 93.1822L202.317 92.8698ZM199.842 90.6586C198.075 88.8909 197.198 86.856 197.198 84.546H196.798C196.798 86.9707 197.723 89.1051 199.56 90.9414L199.842 90.6586ZM197.198 84.546C197.198 82.2316 198.007 80.4368 199.615 79.1365L199.363 78.8255C197.65 80.2106 196.798 82.1257 196.798 84.546H197.198ZM199.613 79.1378C201.263 77.8319 203.546 77.167 206.485 77.167V76.767C203.489 76.767 201.107 77.4447 199.365 78.8242L199.613 79.1378ZM206.485 77.167C209.426 77.167 212.063 77.7446 214.4 78.8954L214.576 78.5366C212.178 77.3554 209.48 76.767 206.485 76.767V77.167ZM214.306 78.6325L213.405 80.5935L213.769 80.7605L214.67 78.7995L214.306 78.6325ZM213.674 80.497C211.452 79.4217 208.895 78.887 206.008 78.887V79.287C208.845 79.287 211.341 79.8123 213.5 80.857L213.674 80.497ZM224.789 112H224.589V112.2H224.789V112ZM224.789 77.603V77.403H224.589V77.603H224.789ZM227.227 77.603H227.427V77.403H227.227V77.603ZM227.227 112V112.2H227.427V112H227.227ZM224.989 112V77.603H224.589V112H224.989ZM224.789 77.803H227.227V77.403H224.789V77.803ZM227.027 77.603V112H227.427V77.603H227.027ZM227.227 111.8H224.789V112.2H227.227V111.8ZM251.19 104.792L251.006 104.714L251.005 104.716L251.19 104.792ZM262.691 77.603V77.403H262.558L262.507 77.5251L262.691 77.603ZM265.235 77.603L265.419 77.6816L265.538 77.403H265.235V77.603ZM250.448 112.212V112.412H250.58L250.632 112.291L250.448 112.212ZM249.017 112.212L248.833 112.291L248.885 112.412H249.017V112.212ZM234.23 77.603V77.403H233.927L234.046 77.6816L234.23 77.603ZM236.88 77.603L237.064 77.5248L237.012 77.403H236.88V77.603ZM249.865 108.184L249.681 108.262L249.887 108.749L250.054 108.247L249.865 108.184ZM251.374 104.87L262.875 77.6809L262.507 77.5251L251.006 104.714L251.374 104.87ZM262.691 77.803H265.235V77.403H262.691V77.803ZM265.051 77.5244L250.264 112.133L250.632 112.291L265.419 77.6816L265.051 77.5244ZM250.448 112.012H249.017V112.412H250.448V112.012ZM249.201 112.133L234.414 77.5244L234.046 77.6816L248.833 112.291L249.201 112.133ZM234.23 77.803H236.88V77.403H234.23V77.803ZM236.696 77.6812L249.681 108.262L250.049 108.106L237.064 77.5248L236.696 77.6812ZM250.054 108.247C250.229 107.725 250.668 106.6 251.375 104.868L251.005 104.716C250.299 106.446 249.854 107.583 249.675 108.121L250.054 108.247ZM272.251 112H272.051V112.2H272.251V112ZM272.251 77.603V77.403H272.051V77.603H272.251ZM288.31 77.603H288.51V77.403H288.31V77.603ZM288.31 79.723V79.923H288.51V79.723H288.31ZM274.689 79.723V79.523H274.489V79.723H274.689ZM274.689 92.231H274.489V92.431H274.689V92.231ZM286.985 92.231H287.185V92.031H286.985V92.231ZM286.985 94.298V94.498H287.185V94.298H286.985ZM274.689 94.298V94.098H274.489V94.298H274.689ZM274.689 109.774H274.489V109.974H274.689V109.774ZM288.84 109.774H289.04V109.574H288.84V109.774ZM288.84 112V112.2H289.04V112H288.84ZM283.222 74.847L283.13 75.0247L283.2 75.0611L283.277 75.0393L283.222 74.847ZM275.007 70.607L274.932 70.4215L274.527 70.5847L274.915 70.7847L275.007 70.607ZM278.028 69.388L278.142 69.2241L278.053 69.1619L277.953 69.2025L278.028 69.388ZM285.077 74.317L285.132 74.5093L285.536 74.3939L285.191 74.1531L285.077 74.317ZM272.451 112V77.603H272.051V112H272.451ZM272.251 77.803H288.31V77.403H272.251V77.803ZM288.11 77.603V79.723H288.51V77.603H288.11ZM288.31 79.523H274.689V79.923H288.31V79.523ZM274.489 79.723V92.231H274.889V79.723H274.489ZM274.689 92.431H286.985V92.031H274.689V92.431ZM286.785 92.231V94.298H287.185V92.231H286.785ZM286.985 94.098H274.689V94.498H286.985V94.098ZM274.489 94.298V109.774H274.889V94.298H274.489ZM274.689 109.974H288.84V109.574H274.689V109.974ZM288.64 109.774V112H289.04V109.774H288.64ZM288.84 111.8H272.251V112.2H288.84V111.8ZM283.313 74.6693L275.098 70.4293L274.915 70.7847L283.13 75.0247L283.313 74.6693ZM275.081 70.7925L278.102 69.5735L277.953 69.2025L274.932 70.4215L275.081 70.7925ZM277.913 69.5519L284.962 74.4809L285.191 74.1531L278.142 69.2241L277.913 69.5519ZM285.022 74.1247L283.167 74.6547L283.277 75.0393L285.132 74.5093L285.022 74.1247Z" fill="black" mask="url(#path-4-outside-2_19_219)"/>
<rect x="66.1" y="69.1" width="207.8" height="1.8" fill="#FFF7F7" stroke="black" stroke-width="0.2"/>
</svg>
