<svg width="77" height="80" viewBox="0 0 77 80" fill="none" xmlns="http://www.w3.org/2000/svg">
<ellipse cx="38.5" cy="39.3536" rx="38.5" ry="38.5132" fill="#7B7B7B" fill-opacity="0.4"/>
<path d="M27.0175 31.7949H42.5526V77.8668H38.5634C35.8247 77.8668 33.0913 77.6259 30.3947 77.1469V77.1469L27.0175 76.0671V31.7949Z" fill="white" fill-opacity="0.4"/>
<path d="M42.5526 51.2315V41.8732H53.3597L51.1983 51.2315H42.5526Z" fill="white" fill-opacity="0.4"/>
<path d="M22.9649 51.2315V41.8732H27.0176V51.2315H22.9649Z" fill="white" fill-opacity="0.4"/>
<path d="M27.0176 31.7876C27.0625 27.971 28.1398 24.245 30.1265 21.0347C32.1133 17.8243 34.9295 15.259 38.2539 13.6312C39.6908 12.9276 41.1743 12.4857 42.6926 12.1766C46.7089 11.3587 51.0659 11.3906 54.5506 13.5566V13.5566L54.5547 26.5517C53.987 26.5515 53.0163 26.4391 48.5901 26.4993C46.8388 26.5231 45.9074 26.5529 44.5264 27.628V27.628C44.0229 28.02 43.446 29.0674 43.1402 29.7872C42.8345 30.507 42.5516 30.9983 42.5423 31.793L27.0176 31.7876Z" fill="white" fill-opacity="0.4"/>
</svg>
